<svg width="142" height="36" viewBox="0 0 142 36" fill="none" xmlns="http://www.w3.org/2000/svg">
<path fill-rule="evenodd" clip-rule="evenodd" d="M139.132 0H108.514C107.051 0 105.862 1.15711 105.862 2.58309V33.2623C105.862 34.6898 107.051 35.8484 108.514 35.8484H139.132C140.598 35.8484 141.792 34.6898 141.792 33.2623V2.58309C141.792 1.15711 140.598 0 139.132 0ZM113.855 4.93546C115.559 4.93546 116.943 6.31688 116.943 8.01745C116.943 9.71951 115.559 11.1009 113.855 11.1009C112.147 11.1009 110.764 9.71951 110.764 8.01745C110.764 6.31688 112.147 4.93546 113.855 4.93546ZM116.518 30.5476H111.189V13.4395H116.518V30.5476ZM119.861 13.4396H124.972V15.7772H125.043C125.755 14.4321 127.493 13.0144 130.086 13.0144C135.482 13.0144 136.478 16.5579 136.478 21.1637V30.5476H131.153V22.228C131.153 20.2441 131.116 17.6921 128.384 17.6921C125.611 17.6921 125.185 19.8532 125.185 22.0846V30.5476H119.861V13.4396ZM20.916 4.92779C22.6218 4.92779 24.0063 6.30921 24.0063 8.00978C24.0063 9.71333 22.6218 11.0908 20.916 11.0908C19.2121 11.0908 17.8276 9.71333 17.8276 8.00978C17.8276 6.30921 19.2121 4.92779 20.916 4.92779ZM18.2522 30.5399H23.5797V13.4319H18.2522V30.5399ZM0 5.30189V30.5468H15.8042V25.4441H5.54277V5.30189H0ZM51.1732 5.30012H45.848V30.5468H51.1732V22.0897H51.2426L56.8946 30.5468H63.5889L56.7482 21.3454L63.7348 13.4243H57.206L51.1732 20.3881V5.30012ZM26.5259 13.4343H31.6396V15.773H31.7109C32.4205 14.4264 34.1611 13.0096 36.7532 13.0096C42.152 13.0096 43.146 16.5527 43.146 21.158V30.5399H37.8188V22.2217C37.8188 20.2369 37.7822 17.6866 35.0473 17.6866C32.2781 17.6866 31.8531 19.8485 31.8531 22.0798V30.5399H26.5259V13.4343ZM72.1763 30.9814C74.9481 30.9814 77.752 29.7401 79.4569 27.5782L75.7285 24.8498C74.8403 26.0544 73.6693 26.9407 71.9286 26.9407C69.8684 26.9407 68.3389 25.6297 67.916 23.6097H80.2743V21.9443C80.2743 16.453 77.1522 12.9099 72.1763 12.9099C66.8506 12.9099 62.5888 16.453 62.5888 21.9443C62.5888 27.4363 66.8506 30.9814 72.1763 30.9814ZM71.6783 16.7368C73.598 16.7368 74.9828 18.2252 74.9481 19.997H67.916C68.0565 18.3313 69.336 16.7368 71.6783 16.7368ZM100.535 30.5374H95.633V28.2687H95.5636C94.7442 29.5085 92.6863 30.9624 90.2706 30.9624C85.1552 30.9624 81.7822 27.2787 81.7822 22.0692C81.7822 17.2851 84.765 12.8914 89.6656 12.8914C91.8694 12.8914 93.9286 13.4934 95.1362 15.1589H95.2056V5.29999H100.535V30.5374ZM91.3689 17.5689C88.7074 17.5689 87.1096 19.3419 87.1096 21.9265C87.1096 24.5153 88.7074 26.2846 91.3689 26.2846C94.0341 26.2846 95.6329 24.5153 95.6329 21.9265C95.6329 19.3419 94.0341 17.5689 91.3689 17.5689Z" fill="#969696"/>
</svg>
